# xmcd
#
# Track frame offsets: 
#        150
#        18557
#        33812
#        57375
#        78232
#        93720
#        110830
#        132750
#        146692
#        162937
#        173632
#        187537
#        207875
#        254500
#
# Disc length: 4116 seconds
#
# Revision: 3
# Processed by: cddbd v1.5.2PL0 Copyright (c) Steve Scherf et al.
# Submitted via: ExactAudioCopyFreeDBPlugin 1.0
#
DISCID=b910120e
DTITLE=The Rankins - The Rankins Collection
DYEAR=1999
DGENRE=Country
TTITLE0=Roving Gypsy Boy (Remix)
TTITLE1=Borders And Time
TTITLE2=Down By the Sally Gardens
TTITLE3=Christy Campbell Medley
TTITLE4=Orangedale Whistle
TTITLE5=Rise Again
TTITLE6=You Feel The Same Way Too
TTITLE7=Grey Dusk Of Eve (Portobello)
TTITLE8=North Country
TTITLE9=Fail II  E (Oran Luadhaidh)
TTITLE10=Gillis Mountain
TTITLE11=Fare Thee Well Love
TTITLE12=Multi River Shuffle (Live)
TTITLE13=Unknown Title
EXTD=
EXTT0=
EXTT1=
EXTT2=
EXTT3=
EXTT4=
EXTT5=
EXTT6=
EXTT7=
EXTT8=
EXTT9=
EXTT10=
EXTT11=
EXTT12=
EXTT13=
PLAYORDER=
